<?xml version="1.0" standalone="no"?>
<!DOCTYPE svg PUBLIC "-//W3C//DTD SVG 20010904//EN"
 "http://www.w3.org/TR/2001/REC-SVG-20010904/DTD/svg10.dtd">
<svg version="1.0" xmlns="http://www.w3.org/2000/svg"
 width="700.000000pt" height="700.000000pt" viewBox="0 0 700.000000 700.000000"
 preserveAspectRatio="xMidYMid meet">
<metadata>
Created by potrace 1.11, written by Peter Selinger 2001-2013
</metadata>
<g transform="translate(0.000000,700.000000) scale(0.100000,-0.100000)"
fill="#000000" stroke="none">
<path d="M3317 6993 c-2 -5 -3 -87 -3 -183 l1 -175 185 0 184 0 1 183 0 182
-182 0 c-100 0 -184 -3 -186 -7z"/>
<path d="M2725 6744 c-35 -16 -55 -24 -420 -184 -154 -67 -299 -131 -322 -141
-24 -11 -213 -94 -420 -185 -459 -201 -424 -186 -503 -221 -36 -16 -111 -49
-167 -73 -91 -39 -100 -46 -93 -64 18 -48 104 -254 120 -291 10 -22 21 -50 24
-62 8 -24 34 -30 64 -14 24 14 136 64 212 96 36 15 254 109 485 210 231 101
510 222 620 270 110 47 214 92 230 99 32 14 249 109 303 133 18 8 45 20 61 26
l29 12 -50 110 c-27 61 -65 143 -84 183 -19 41 -34 77 -34 82 0 20 -26 27 -55
14z"/>
<path d="M4233 6747 c-4 -7 -25 -55 -45 -107 -21 -52 -42 -104 -48 -115 -19
-42 -70 -169 -67 -170 1 -1 90 -40 197 -88 107 -47 263 -116 345 -153 83 -36
169 -75 193 -85 23 -11 63 -28 89 -40 26 -11 184 -82 352 -156 401 -177 452
-200 539 -239 41 -19 75 -34 78 -34 2 0 38 -16 80 -36 42 -19 77 -34 78 -32 3
4 45 95 66 143 18 41 66 148 100 220 10 22 17 41 16 41 -2 2 -465 206 -613
270 -67 29 -142 62 -165 72 -24 11 -113 50 -198 87 -85 37 -173 76 -195 86
-38 17 -555 244 -717 314 -57 25 -79 31 -85 22z"/>
<path d="M2 5342 l3 -185 182 -1 183 -1 0 186 0 185 -185 1 -185 0 2 -185z"/>
<path d="M6630 5343 c0 -167 1 -183 18 -184 9 0 92 -1 185 -2 l167 -2 0 186 0
186 -185 0 -185 0 0 -184z"/>
<path d="M5970 5000 c-30 -10 -431 -145 -890 -300 -459 -155 -870 -293 -912
-307 -43 -14 -78 -27 -78 -29 0 -2 9 -27 19 -56 11 -29 40 -112 65 -185 26
-73 50 -143 55 -156 l10 -24 58 20 c32 10 471 158 976 328 505 169 921 311
926 313 5 3 -8 52 -28 108 -20 57 -52 149 -71 206 -39 115 -36 113 -130 82z"/>
<path d="M935 4993 c-13 -34 -124 -387 -122 -388 1 -1 43 -16 92 -33 96 -33
359 -125 695 -242 113 -40 216 -75 230 -80 29 -9 568 -198 774 -271 77 -27
144 -49 150 -49 11 0 159 410 152 417 -2 2 -318 110 -702 239 -658 221 -1225
412 -1250 421 -6 2 -15 -4 -19 -14z"/>
<path d="M4 4596 c-2 -6 -3 -587 -2 -1290 l3 -1279 160 0 c88 1 170 1 183 2
l22 1 -2 1288 -3 1287 -179 1 c-117 0 -179 -3 -182 -10z"/>
<path d="M6634 4601 c-2 -2 -4 -581 -4 -1287 0 -1017 3 -1283 13 -1286 6 -2
89 -3 182 -3 l170 1 3 1290 2 1289 -181 0 c-99 0 -182 -1 -185 -4z"/>
<path d="M3317 4045 c-3 -9 -1 -342 2 -355 0 -3 83 -5 183 -5 l182 0 1 179 c0
129 -3 180 -12 183 -25 10 -353 8 -356 -2z"/>
<path d="M3317 3306 c-3 -10 -1 -2361 2 -2378 0 -4 83 -6 183 -5 l183 2 0
1195 0 1195 -182 1 c-121 0 -183 -3 -186 -10z"/>
<path d="M4 1471 c-2 -2 -4 -86 -4 -185 l0 -181 183 0 182 1 3 182 c1 100 -1
182 -5 183 -27 3 -355 3 -359 0z"/>
<path d="M6634 1471 c-7 -8 -4 -361 4 -362 4 -1 87 -2 185 -3 l177 -1 -2 185
-3 185 -178 0 c-98 0 -181 -2 -183 -4z"/>
<path d="M954 1297 c-42 -115 -143 -411 -141 -413 1 0 205 -69 452 -152 248
-84 690 -232 983 -331 357 -121 534 -176 537 -168 17 52 118 340 130 371 8 22
14 40 12 42 -1 1 -234 79 -517 174 -283 95 -726 244 -983 331 -310 104 -470
153 -473 146z"/>
<path d="M5435 1105 c-330 -112 -607 -205 -615 -208 -8 -3 -172 -58 -365 -123
-372 -124 -389 -130 -380 -144 3 -5 33 -89 66 -187 34 -98 65 -188 70 -200 8
-21 22 -17 616 183 334 113 777 262 984 332 l377 126 -13 41 c-29 93 -128 370
-134 376 -3 3 -276 -85 -606 -196z"/>
<path d="M3319 368 c-1 -2 -2 -85 -3 -186 l-1 -182 185 2 185 3 0 180 0 180
-182 3 c-101 1 -184 1 -184 0z"/>
</g>
</svg>
